<svg xmlns="http://www.w3.org/2000/svg" viewBox="0 0 1775.79 1744.34"><defs><style>.cls-1{fill:#27aae1;}.cls-2{fill:#03045e;}.cls-3{fill:#f9ed32;}.cls-4{fill:#f15a29;}.cls-5{fill:#023e8a;}.cls-6{fill:#2bb673;}.cls-7{fill:#ee2a7b;}.cls-8{fill:#a97c50;}.cls-9{fill:#ef233c;}</style></defs><g id="Layer_1" data-name="Layer 1"><path class="cls-1" d="M1097,658.92v29.43h-.35V653.63A42.21,42.21,0,0,1,1097,658.92Z" transform="translate(-90.23 -109.09)"/><path class="cls-2" d="M1501.46,452.06V965.83a86.08,86.08,0,0,1-43,74.53l-444.95,256.88a86,86,0,0,1-86.07,0L482.5,1040.36a86,86,0,0,1-43.06-74.53V452.06A86.07,86.07,0,0,1,482.5,377.5L927.41,120.62a86,86,0,0,1,86.07,0l83.14,48V288l-83.14-48a86.09,86.09,0,0,0-86.07,0L585.85,437.17a86.05,86.05,0,0,0-43,74.56v394.4a86,86,0,0,0,43,74.56l341.56,197.22a86.09,86.09,0,0,0,86.07,0l341.6-197.22a86.08,86.08,0,0,0,43-74.56V511.73a86.12,86.12,0,0,0-43-74.56L1195,344.72V225.38L1458.43,377.5A86.13,86.13,0,0,1,1501.46,452.06Z" transform="translate(-90.23 -109.09)"/><path class="cls-3" d="M1097,658.92v29.43h-.35V653.63A42.21,42.21,0,0,1,1097,658.92Z" transform="translate(-90.23 -109.09)"/><path class="cls-4" d="M1097,658.92v29.43h-.35V653.63A42.21,42.21,0,0,1,1097,658.92Z" transform="translate(-90.23 -109.09)"/><path class="cls-5" d="M1299.77,568.53V849.36a86.05,86.05,0,0,1-43,74.53l-243.25,140.45a86,86,0,0,1-86.07,0L684.2,923.89a86.05,86.05,0,0,1-43-74.53V568.53a86.05,86.05,0,0,1,43-74.56L927.41,353.55a86,86,0,0,1,86.07,0l83.14,48v121l-83.14-48a86,86,0,0,0-86.07,0L789,554.47a86.08,86.08,0,0,0-43,74.53V788.86a86.13,86.13,0,0,0,43,74.56l138.45,79.91a86,86,0,0,0,86.07,0l138.45-79.91a86.12,86.12,0,0,0,43-74.56V458.32L1256.73,494A86.05,86.05,0,0,1,1299.77,568.53Z" transform="translate(-90.23 -109.09)"/><path class="cls-6" d="M1097,658.92v29.43h-.35V653.63A42.21,42.21,0,0,1,1097,658.92Z" transform="translate(-90.23 -109.09)"/><path class="cls-2" d="M1097,688.35V759a40,40,0,0,1-19.92,34.53l-86.65,50a40,40,0,0,1-39.87,0l-86.65-50A39.87,39.87,0,0,1,844,759V658.92a39.83,39.83,0,0,1,19.92-34.53l86.65-50a39.88,39.88,0,0,1,39.87,0l86.65,50a39.87,39.87,0,0,1,19.57,29.24v34.72Z" transform="translate(-90.23 -109.09)"/><path class="cls-7" d="M1097,658.92v29.43h-.35V653.63A42.21,42.21,0,0,1,1097,658.92Z" transform="translate(-90.23 -109.09)"/><path class="cls-8" d="M1097,658.92v29.43h-.35V653.63A42.21,42.21,0,0,1,1097,658.92Z" transform="translate(-90.23 -109.09)"/><path class="cls-2" d="M177,1780.78q-25.83,0-45.41-12.51t-30.47-35.72q-10.89-23.21-10.89-54.69,0-31.87,10.89-54.68t30.47-35.32q19.57-12.51,45.41-12.51a77.82,77.82,0,0,1,37.94,9.28q17,9.28,25.42,24.62v-117h50.45v284.53H241.57v-32.69q-8.07,17-25.42,26.84T177,1780.78Zm14.12-38.34q22.6,0,36.33-16.35t13.72-48.23q0-32.28-13.72-48.23t-36.33-15.94q-22.6,0-36.32,15.94t-13.72,48.23q0,31.89,13.72,48.23T191.12,1742.44Z" transform="translate(-90.23 -109.09)"/><path class="cls-2" d="M343.27,1776.74V1579.39h50.45v197.35Z" transform="translate(-90.23 -109.09)"/><path class="cls-2" d="M538.21,1853.43a203.43,203.43,0,0,1-51.46-6.26A127.48,127.48,0,0,1,444.57,1828l14.53-35.11a127.55,127.55,0,0,0,36.32,16.75,142.7,142.7,0,0,0,38.75,5.44q54.08,0,54.08-52.06v-27q-8.47,16.56-26,26.23a79.24,79.24,0,0,1-39,9.69q-26.62,0-46.41-12.31t-30.67-34.51q-10.9-22.18-10.9-51.66t10.9-51.46a82.55,82.55,0,0,1,30.67-34.3q19.77-12.32,46.41-12.31,22.2,0,39.55,9.89t25.43,26.43v-32.28h49.24V1757q0,48-25.43,72.24T538.21,1853.43ZM537,1733.56q23.4,0,37.13-16.15t13.72-44q0-27.84-13.72-43.79T537,1613.69q-23.41,0-37.14,15.94t-13.72,43.79q0,27.86,13.72,44T537,1733.56Z" transform="translate(-90.23 -109.09)"/><path class="cls-2" d="M690,1776.74V1579.39H740.4v197.35Z" transform="translate(-90.23 -109.09)"/><path class="cls-5" d="M895.78,1780.78q-33.49,0-62.15-8.68t-48.43-23.61l15.74-40.76a158,158,0,0,0,43.38,21.79q23.61,7.68,51.46,7.67,31.88,0,46.41-10.69t14.53-27.65q0-14.13-10.29-22.2t-35.31-13.32l-44.4-9.28q-75.87-16.14-75.87-77.89,0-26.64,14.12-46.42t39.15-30.67q25-10.89,57.72-10.9a167.69,167.69,0,0,1,54.48,8.68q25.42,8.69,42.38,24.42L983,1560q-33.51-28.24-81.53-28.25-27.84,0-43.59,11.71t-15.74,30.67q0,14.52,9.69,23.2t33.09,13.53l44,9.28q39.95,8.47,59.53,26.64t19.57,48.43q0,25.42-13.72,44.8t-39,30.06Q930.08,1780.78,895.78,1780.78Z" transform="translate(-90.23 -109.09)"/><path class="cls-5" d="M1047.53,1849.39v-270h49.24v31.48q8.48-16.14,25.63-25.84t38.94-9.68q25.83,0,45.41,12.51t30.47,35.32q10.9,22.8,10.9,54.68,0,31.48-10.9,54.69T1207,1768.27q-19.37,12.51-45.61,12.51-21,0-37.73-9.08a64.13,64.13,0,0,1-25.63-24.42v102.11Zm99.69-107q22.59,0,36.32-16.35t13.72-48.23q0-32.28-13.72-48.23t-36.32-15.94q-22.6,0-36.33,15.94t-13.72,48.23q0,31.89,13.72,48.23T1147.22,1742.44Z" transform="translate(-90.23 -109.09)"/><path class="cls-5" d="M1354.66,1780.78q-21.39,0-38.14-8.27t-26.23-22.4a55.85,55.85,0,0,1-9.49-31.89q0-21.79,11.3-34.51t36.73-18.36q25.43-5.64,68.21-5.65h14.12v-8.48q0-20.17-8.88-29t-29.86-8.88a121.13,121.13,0,0,0-33.9,5,153.76,153.76,0,0,0-35.11,15.54l-14.54-34.31a115.77,115.77,0,0,1,24.83-12.71,177.71,177.71,0,0,1,30.27-8.47,161.19,161.19,0,0,1,30.06-3q43.18,0,64.18,20t21,62v119.46H1412v-31.48a55,55,0,0,1-21.79,26Q1375.24,1780.77,1354.66,1780.78Zm10.49-34.71q19.77,0,32.9-13.72t13.11-34.71v-8.88h-13.72q-37.93,0-52.67,5.85T1330,1715.8q0,13.32,9.28,21.8T1365.15,1746.07Z" transform="translate(-90.23 -109.09)"/><path class="cls-5" d="M1510.45,1776.74V1579.39h49.23v34.7q14.53-35.1,62.16-38.74l15.33-1.21,3.23,42.78-29.05,2.82q-49.65,4.85-49.65,50.86v106.14Z" transform="translate(-90.23 -109.09)"/><path class="cls-5" d="M1668.65,1776.74V1492.21h50.45v171.12h.81l79.51-83.94h60.94l-89.59,94.43L1866,1776.74h-61.75l-84.35-88h-.81v88Z" transform="translate(-90.23 -109.09)"/></g><g id="Layer_2" data-name="Layer 2"><circle class="cls-2" cx="278.07" cy="1407.34" r="28.25"/><circle class="cls-9" cx="624.95" cy="1407.34" r="28.25"/></g></svg>